<svg xmlns="http://www.w3.org/2000/svg" version="1.1" xmlns:xlink="http://www.w3.org/1999/xlink" xmlns:svgjs="http://svgjs.dev/svgjs" width="1000" height="1064" viewBox="0 0 1000 1064"><g transform="matrix(1,0,0,1,-0.16563487978822877,0.43076923076921503)"><svg viewBox="0 0 232 247" data-background-color="#ff7b71" preserveAspectRatio="xMidYMid meet" height="1064" width="1000" xmlns="http://www.w3.org/2000/svg" xmlns:xlink="http://www.w3.org/1999/xlink"><g id="tight-bounds" transform="matrix(1,0,0,1,0.038427292110867484,-0.09999999999999432)"><svg viewBox="0 0 231.92314541577827 247.2" height="247.2" width="231.92314541577827"><g><svg></svg></g><g><svg viewBox="0 0 231.92314541577827 247.2" height="247.2" width="231.92314541577827"><g transform="matrix(1,0,0,1,0,47.215199999999996)"><svg viewBox="0 0 231.92314541577827 152.7696" height="152.7696" width="231.92314541577827"><g><svg viewBox="0 0 231.92314541577827 152.7696" height="152.7696" width="231.92314541577827"><g><svg viewBox="0 0 231.92314541577827 152.7696" height="152.7696" width="231.92314541577827"><g><svg viewBox="0 0 231.92314541577827 152.7696" height="152.7696" width="231.92314541577827"><g><svg viewBox="0 0 231.92314541577827 152.7696" height="152.7696" width="231.92314541577827"><g><svg viewBox="0 0 231.92314541577827 152.7696" height="152.7696" width="231.92314541577827"><g transform="matrix(1,0,0,1,0,0)"><svg width="231.92314541577827" viewBox="4.55 -35 71.2 46.900000000000006" height="152.7696" data-palette-color="#424242"><path d="M8.3-2.05L8.3 11.9 4.55 11.9 4.55-24.95 6.75-24.95 8.05-22.15Q10.15-23.75 11.98-24.63 13.8-25.5 16-25.5L16-25.5Q25-25.5 25-12.55L25-12.55Q25-5.2 21.8-2.3L21.8-2.3Q18.95 0.35 15.33 0.35 11.7 0.35 8.3-2.05L8.3-2.05ZM8.3-18.8L8.3-18.8 8.3-5.45Q9.3-4.25 11-3.55 12.7-2.85 14.25-2.85L14.25-2.85Q18.15-2.85 19.7-5.15 21.25-7.45 21.25-12.35 21.25-17.25 19.7-19.75 18.15-22.25 15.75-22.25L15.75-22.25Q14.15-22.25 12.58-21.6 11-20.95 10.23-20.38 9.45-19.8 8.3-18.8ZM47.3-12.33Q47.3-17.15 45.4-19.7 43.5-22.25 39.85-22.25 36.2-22.25 34.67-19.83 33.15-17.4 33.15-12.4L33.15-12.4Q33.15-2.95 40.1-2.95L40.1-2.95Q43.75-2.95 45.52-5.23 47.3-7.5 47.3-12.33ZM48.2-3.1Q45.35 0.3 40.15 0.3 34.95 0.3 32.17-3.08 29.4-6.45 29.4-12.53 29.4-18.6 32.07-22.05 34.75-25.5 39.92-25.5 45.1-25.5 48.07-22 51.05-18.5 51.05-12.5 51.05-6.5 48.2-3.1ZM72-23L72-35 75.75-35 75.75 0 73.55 0 72.3-2.85Q67.7 0.4 64.3 0.4L64.3 0.4Q55.3 0.4 55.3-12.55L55.3-12.55Q55.3-19.9 58.5-22.8L58.5-22.8Q61.35-25.45 64.95-25.45 68.55-25.45 72-23L72-23ZM72-6.2L72-6.2 72-19.2Q70.95-20.45 69.22-21.35 67.5-22.25 66.05-22.25L66.05-22.25Q62.15-22.25 60.6-19.95 59.05-17.65 59.05-12.75 59.05-7.85 60.6-5.35 62.15-2.85 64.55-2.85L64.55-2.85Q68.15-2.85 72-6.2Z" opacity="1" transform="matrix(1,0,0,1,0,0)" fill="#424242" class="undefined-text-0" data-fill-palette-color="primary" id="text-0"></path></svg></g></svg></g></svg></g></svg></g><g></g></svg></g></svg></g></svg></g><path d="M0 41.215L0 1 231.923 1 231.923 41.215 218.146 41.215 218.146 14.777 13.777 14.777 13.777 41.215 0 41.215M0 205.985L0 246.2 231.923 246.2 231.923 205.985 218.146 205.985 218.146 232.423 13.777 232.423 13.777 205.985 0 205.985" fill="#424242" stroke="transparent" data-fill-palette-color="primary"></path></svg></g><defs></defs></svg><rect width="231.92314541577827" height="247.2" fill="none" stroke="none" visibility="hidden"></rect></g></svg></g></svg>