<svg xmlns="http://www.w3.org/2000/svg" version="1.1" xmlns:xlink="http://www.w3.org/1999/xlink" xmlns:svgjs="http://svgjs.dev/svgjs" width="1000" height="623" viewBox="0 0 1000 623"><g transform="matrix(1,0,0,1,-0.6060606060606233,35.13992622582094)"><svg viewBox="0 0 396 247" data-background-color="#ffe85c" preserveAspectRatio="xMidYMid meet" height="623" width="1000" xmlns="http://www.w3.org/2000/svg" xmlns:xlink="http://www.w3.org/1999/xlink"><g id="tight-bounds" transform="matrix(1,0,0,1,0.2400000000000091,-0.09999999999999432)"><svg viewBox="0 0 395.52 247.2" height="247.2" width="395.52"><g><svg></svg></g><g><svg viewBox="0 0 395.52 247.2" height="247.2" width="395.52"><g transform="matrix(1,0,0,1,75.54432000000001,68.6747752141058)"><svg viewBox="0 0 244.43135999999996 109.8504495717884" height="109.8504495717884" width="244.43135999999996"><g><svg viewBox="0 0 244.43135999999996 109.8504495717884" height="109.8504495717884" width="244.43135999999996"><g><svg viewBox="0 0 244.43135999999996 109.8504495717884" height="109.8504495717884" width="244.43135999999996"><g><svg viewBox="0 0 244.43135999999996 109.8504495717884" height="109.8504495717884" width="244.43135999999996"><g><svg viewBox="0 0 244.43135999999996 109.8504495717884" height="109.8504495717884" width="244.43135999999996"><g><svg viewBox="0 0 244.43135999999996 109.8504495717884" height="109.8504495717884" width="244.43135999999996"><g transform="matrix(1,0,0,1,0,0)"><svg width="244.43135999999996" viewBox="4.320000171661377 -40.5 116.30000305175781 52.27000045776367" height="109.8504495717884" data-palette-color="#374151"><path d="M11.55-2.08L11.55 11.77 4.32 11.77 4.32-28.81 11.55-28.81 11.55-26.1Q12.5-26.76 13.79-27.34 15.09-27.93 16.58-28.37 18.07-28.81 19.65-29.06 21.24-29.32 22.83-29.32L22.83-29.32Q26.49-29.32 29.55-28.25 32.62-27.17 34.81-25.22 37.01-23.27 38.24-20.54 39.48-17.82 39.48-14.53L39.48-14.53Q39.48-11.08 38.18-8.31 36.89-5.54 34.61-3.58 32.32-1.61 29.19-0.55 26.05 0.51 22.39 0.51L22.39 0.51Q20.83 0.51 19.3 0.32 17.77 0.12 16.37-0.22 14.97-0.56 13.73-1.04 12.5-1.51 11.55-2.08L11.55-2.08ZM11.55-19.04L11.55-9.06Q12.65-8.18 13.87-7.57 15.09-6.96 16.36-6.57 17.63-6.18 18.92-5.99 20.21-5.81 21.44-5.81L21.44-5.81Q23.93-5.81 25.87-6.48 27.81-7.15 29.14-8.33 30.47-9.5 31.18-11.08 31.88-12.67 31.88-14.53L31.88-14.53Q31.88-16.26 31.19-17.8 30.49-19.34 29.19-20.5 27.88-21.66 26.04-22.33 24.19-23 21.9-23L21.9-23Q20.43-23 18.97-22.72 17.5-22.44 16.15-21.92 14.79-21.41 13.61-20.68 12.43-19.95 11.55-19.04L11.55-19.04ZM44.55-14.4L44.55-14.4Q44.55-17.5 45.81-20.21 47.07-22.92 49.4-24.95 51.73-26.98 55.04-28.15 58.35-29.32 62.47-29.32L62.47-29.32Q66.6-29.32 69.91-28.15 73.22-26.98 75.55-24.95 77.88-22.92 79.14-20.21 80.39-17.5 80.39-14.4L80.39-14.4Q80.39-11.3 79.14-8.59 77.88-5.88 75.55-3.86 73.22-1.83 69.91-0.66 66.6 0.51 62.47 0.51L62.47 0.51Q58.35 0.51 55.04-0.66 51.73-1.83 49.4-3.86 47.07-5.88 45.81-8.59 44.55-11.3 44.55-14.4ZM52.15-14.4L52.15-14.4Q52.15-12.67 52.84-11.12 53.54-9.57 54.87-8.39 56.2-7.2 58.12-6.51 60.03-5.81 62.47-5.81L62.47-5.81Q64.91-5.81 66.83-6.51 68.75-7.2 70.08-8.39 71.41-9.57 72.1-11.12 72.8-12.67 72.8-14.4L72.8-14.4Q72.8-16.14 72.1-17.7 71.41-19.26 70.08-20.45 68.75-21.63 66.83-22.33 64.91-23.02 62.47-23.02L62.47-23.02Q60.03-23.02 58.12-22.33 56.2-21.63 54.87-20.45 53.54-19.26 52.84-17.7 52.15-16.14 52.15-14.4ZM85.47-14.28L85.47-14.28Q85.47-17.72 86.76-20.5 88.06-23.27 90.34-25.23 92.62-27.2 95.76-28.26 98.9-29.32 102.56-29.32L102.56-29.32Q104.12-29.32 105.65-29.13 107.17-28.93 108.58-28.59 109.98-28.25 111.21-27.77 112.45-27.29 113.4-26.73L113.4-26.73 113.4-40.5 120.62-40.5 120.62 0 113.4 0 113.4-2.71Q112.45-2.05 111.15-1.46 109.86-0.88 108.37-0.44 106.88 0 105.28 0.26 103.68 0.51 102.12 0.51L102.12 0.51Q98.46 0.51 95.39-0.56 92.33-1.64 90.13-3.59 87.93-5.54 86.7-8.26 85.47-10.99 85.47-14.28ZM93.06-14.28L93.06-14.28Q93.06-12.55 93.76-11.01 94.45-9.47 95.76-8.31 97.07-7.15 98.91-6.48 100.75-5.81 103.05-5.81L103.05-5.81Q104.51-5.81 105.98-6.09 107.44-6.37 108.8-6.88 110.15-7.4 111.34-8.13 112.52-8.86 113.4-9.77L113.4-9.77 113.4-19.75Q112.3-20.63 111.08-21.24 109.86-21.85 108.59-22.24 107.32-22.63 106.03-22.81 104.73-23 103.51-23L103.51-23Q101.02-23 99.08-22.33 97.14-21.66 95.81-20.48 94.48-19.31 93.77-17.72 93.06-16.14 93.06-14.28Z" opacity="1" transform="matrix(1,0,0,1,0,0)" fill="#374151" class="undefined-text-0" data-fill-palette-color="primary" id="text-0"></path></svg></g></svg></g></svg></g></svg></g><g></g></svg></g></svg></g></svg></g><g><path d="M141.253 42.742A122.216 122.216 0 0 1 254.267 42.742L244.361 42.742A112.309 112.309 0 0 0 151.159 42.742L141.253 42.742M141.253 204.458A122.216 122.216 0 0 0 254.267 204.458L244.361 204.458A112.309 112.309 0 0 1 151.159 204.458L141.253 204.458" fill="#374151" stroke="transparent" data-fill-palette-color="tertiary"></path></g></svg></g><defs></defs></svg><rect width="395.52" height="247.2" fill="none" stroke="none" visibility="hidden"></rect></g></svg></g></svg>